<svg width="25" height="15" viewBox="0 0 25 15" fill="none" xmlns="http://www.w3.org/2000/svg">
<path d="M21.2398 15L20.1567 11.4441H14.7105L13.6274 15H10.2146L15.4871 0H19.3597L24.6526 15H21.2398ZM19.4005 8.78747C18.3992 5.56539 17.8338 3.74319 17.7044 3.32084C17.5817 2.8985 17.4932 2.56471 17.4387 2.31948C17.2139 3.19142 16.5702 5.34741 15.5075 8.78747H19.4005Z" fill="#9B2828"/>
<path d="M3.1069 8.92277H0V7.16637H3.1069V4.03854H4.86507V7.16637H7.97197V8.92277H4.86507V12.0105H3.1069V8.92277Z" fill="#9B2828"/>
<path d="M3.1069 8.92277H0V7.16637H3.1069V4.03854H4.86507V7.16637H7.97197V8.92277H4.86507V12.0105H3.1069V8.92277Z" fill="#9B2828"/>
</svg>
