<svg width="579" height="423" viewBox="0 0 579 423" fill="none" xmlns="http://www.w3.org/2000/svg">
<path fill-rule="evenodd" clip-rule="evenodd" d="M100.735 60.054C78.1806 60.054 59.8966 78.3861 59.8966 101V260.566C59.8966 277.149 46.4883 290.593 29.9483 290.593C13.4083 290.593 0 277.149 0 260.566V101C0 45.2192 45.1007 0 100.735 0H106.997C224.331 0 319.448 95.3677 319.448 213.01C319.448 229.593 306.04 243.037 289.5 243.037C272.96 243.037 259.552 229.593 259.552 213.01C259.552 128.535 191.251 60.054 106.997 60.054H100.735Z" fill="#F7F6E4"/>
<path fill-rule="evenodd" clip-rule="evenodd" d="M478.265 60.054C500.819 60.054 519.104 78.3861 519.104 101V392.973C519.104 409.556 532.512 423 549.052 423C565.592 423 579 409.556 579 392.973V101C579 45.2192 533.899 0 478.265 0C357.473 0 259.552 98.1786 259.552 219.288V260.566C259.552 277.149 272.96 290.593 289.5 290.593C306.04 290.593 319.448 277.149 319.448 260.566V219.288C319.448 131.345 390.553 60.054 478.265 60.054Z" fill="#F7F6E4"/>
</svg>
