<svg width="278" height="46" viewBox="0 0 278 46" fill="none" xmlns="http://www.w3.org/2000/svg">
<path d="M27.1051 8.52108C26.6542 8.52108 26.2402 8.67106 25.9148 8.92104C25.9318 8.82448 25.9408 8.72526 25.9408 8.62402C25.9408 7.62878 25.0922 6.822 24.0457 6.822C23.1052 6.822 22.3251 7.47381 22.1765 8.32794H19.0237V6.48838C19.9221 6.34712 20.6076 5.60528 20.6076 4.71097C20.6076 3.71557 19.7589 2.90894 18.7125 2.90894C18.6324 2.90894 18.5536 2.91408 18.4761 2.92327C18.7339 2.61566 18.8885 2.22598 18.8885 1.80203C18.8885 0.80663 18.0399 0 16.9933 0C15.9466 0 15.0982 0.806785 15.0982 1.80203C15.0982 2.23096 15.2559 2.62439 15.519 2.93386C15.4173 2.91782 15.3129 2.90909 15.2065 2.90909C14.1598 2.90909 13.3114 3.71588 13.3114 4.71112C13.3114 5.60544 13.9967 6.34727 14.8951 6.48854V8.3281H11.8235C11.6749 7.47397 10.8948 6.82216 9.95426 6.82216C8.90762 6.82216 8.05917 7.62909 8.05917 8.62418C8.05917 8.70034 8.06474 8.77526 8.0744 8.84877C7.75058 8.60362 7.34093 8.4566 6.89509 8.4566C5.84845 8.4566 5 9.26354 5 10.2586C5 11.254 5.84845 12.0606 6.89509 12.0606C7.34601 12.0606 7.75992 11.9107 8.08538 11.6607C8.06834 11.7574 8.05917 11.8566 8.05917 11.9578C8.05917 12.9532 8.90762 13.7599 9.95426 13.7599C10.8948 13.7599 11.6749 13.1081 11.8235 12.2538H14.8951V22.5116C13.9967 22.6529 13.3114 23.3947 13.3114 24.289C13.3114 25.2843 14.1598 26.0911 15.2065 26.0911C15.2866 26.0911 15.3653 26.0858 15.4427 26.0764C15.1848 26.3843 15.0304 26.774 15.0304 27.198C15.0304 28.1932 15.8788 29 16.9255 29C17.9721 29 18.8206 28.1931 18.8206 27.198C18.8206 26.769 18.6628 26.3756 18.3999 26.066C18.5017 26.0822 18.606 26.0909 18.7125 26.0909C19.7591 26.0909 20.6076 25.284 20.6076 24.2889C20.6076 23.3946 19.9221 22.6527 19.0237 22.5115V12.2536H22.1765C22.3251 13.1079 23.1052 13.7597 24.0457 13.7597C25.0924 13.7597 25.9408 12.9529 25.9408 11.9577C25.9408 11.8815 25.9353 11.8066 25.9256 11.7331C26.2494 11.9781 26.6591 12.1251 27.1049 12.1251C28.1515 12.1251 29 11.3183 29 10.3231C29 9.32786 28.1517 8.52108 27.1051 8.52108Z" fill="#D07474"/>
<path d="M4 42V22.5455C4 20.5874 5.58735 19 7.54545 19H7.8591C12.9075 19 17 23.0925 17 28.1409V28.1409" stroke="white" stroke-width="8" stroke-linecap="round"/>
<path d="M30 37V22.5455C30 20.5874 28.4126 19 26.4545 19V19C21.2329 19 17 23.2329 17 28.4545V29.9104" stroke="white" stroke-width="8" stroke-linecap="round"/>
<path d="M4 44V24.5455C4 22.5874 5.58735 21 7.54545 21H7.8591C12.9075 21 17 25.0925 17 30.1409V30.1409" stroke="#9B2828" stroke-width="4" stroke-linecap="round"/>
<path d="M30 40V24.5455C30 22.5874 28.4126 21 26.4545 21V21C21.2329 21 17 25.2329 17 30.4545V32.5166" stroke="#9B2828" stroke-width="4" stroke-linecap="round"/>
<path d="M44.8789 21.8359H52.4961L57.0225 30.4199L61.3071 21.8359H68.3164V24.1797H65.9727V37.6562H68.3164V40H58.9414V37.6562H61.2852V27.0874L56.5977 36.4844H55.1328L50.1523 27.0508V37.6562H52.4961V40H44.8789V37.6562H47.2227V24.1797H44.8789V21.8359ZM76.6514 21.8213C77.4473 21.6357 78.2822 21.543 79.1562 21.543C80.0303 21.543 80.8628 21.6357 81.6538 21.8213C82.4497 22.002 83.1675 22.2559 83.8071 22.583C84.4517 22.9102 85.0449 23.3008 85.5869 23.7549C86.1289 24.209 86.5977 24.7119 86.9932 25.2637C87.3887 25.8105 87.7231 26.394 87.9966 27.0142C88.2749 27.6294 88.4824 28.2666 88.6191 28.9258C88.7559 29.5801 88.8242 30.2441 88.8242 30.918C88.8242 31.5918 88.7559 32.2583 88.6191 32.9175C88.4824 33.5718 88.2749 34.209 87.9966 34.8291C87.7231 35.4443 87.3887 36.0278 86.9932 36.5796C86.5977 37.1265 86.1289 37.627 85.5869 38.0811C85.0449 38.5352 84.4517 38.9258 83.8071 39.2529C83.1675 39.5801 82.4497 39.834 81.6538 40.0146C80.8628 40.2002 80.0303 40.293 79.1562 40.293C78.2822 40.293 77.4473 40.2002 76.6514 40.0146C75.8604 39.834 75.1426 39.5801 74.498 39.2529C73.8584 38.9258 73.2676 38.5352 72.7256 38.0811C72.1836 37.627 71.7148 37.1265 71.3193 36.5796C70.9238 36.0278 70.5869 35.4443 70.3086 34.8291C70.0352 34.209 69.8301 33.5718 69.6934 32.9175C69.5566 32.2583 69.4883 31.5918 69.4883 30.918C69.4883 30.2441 69.5566 29.5801 69.6934 28.9258C69.8301 28.2666 70.0352 27.6294 70.3086 27.0142C70.5869 26.394 70.9238 25.8105 71.3193 25.2637C71.7148 24.7119 72.1836 24.209 72.7256 23.7549C73.2676 23.3008 73.8584 22.9102 74.498 22.583C75.1426 22.2559 75.8604 22.002 76.6514 21.8213ZM80.7676 24.2529C80.2842 24.0088 79.7471 23.8867 79.1562 23.8867C78.5654 23.8867 78.0259 24.0088 77.5376 24.2529C77.0542 24.4922 76.6416 24.8242 76.2998 25.249C75.9629 25.6738 75.6772 26.1841 75.4429 26.7798C75.2085 27.3706 75.0352 28.0127 74.9229 28.7061C74.8154 29.3994 74.7617 30.1367 74.7617 30.918C74.7617 31.8945 74.8545 32.8052 75.04 33.6499C75.2305 34.4897 75.5039 35.2319 75.8604 35.8765C76.2168 36.521 76.6758 37.0288 77.2373 37.3999C77.8037 37.7661 78.4434 37.9492 79.1562 37.9492C79.8691 37.9492 80.5063 37.7661 81.0679 37.3999C81.6343 37.0288 82.0957 36.521 82.4521 35.8765C82.8086 35.2319 83.0796 34.4897 83.2651 33.6499C83.4556 32.8052 83.5508 31.8945 83.5508 30.918C83.5508 30.1367 83.4946 29.3994 83.3823 28.7061C83.2749 28.0127 83.104 27.3706 82.8696 26.7798C82.6353 26.1841 82.3472 25.6738 82.0054 25.249C81.6685 24.8242 81.2559 24.4922 80.7676 24.2529ZM93.5117 21.8359H110.504V24.1797H108.16V37.6562H110.504V40H101.129V37.6562H103.473V24.1797H99.3711V30.625C99.3711 31.8213 99.3369 32.876 99.2686 33.7891C99.2002 34.6973 99.0854 35.52 98.9243 36.2573C98.7681 36.9897 98.563 37.605 98.3091 38.103C98.0601 38.5962 97.7476 39.0112 97.3716 39.3481C97.0005 39.6802 96.5708 39.9194 96.0825 40.0659C95.5942 40.2173 95.0303 40.293 94.3906 40.293C93.9561 40.293 93.5312 40.2466 93.1162 40.1538C92.7012 40.061 92.3032 39.9146 91.9224 39.7144C91.5464 39.5093 91.2144 39.2603 90.9263 38.9673C90.6431 38.6743 90.416 38.3154 90.2451 37.8906C90.0791 37.4658 89.9961 36.9971 89.9961 36.4844C89.9961 35.3613 90.2671 34.48 90.8091 33.8403C91.0239 33.5718 91.29 33.3594 91.6074 33.2031C91.9297 33.0469 92.2715 32.9688 92.6328 32.9688C93.2822 32.9688 93.834 33.1982 94.2881 33.6572C94.7471 34.1113 94.9766 34.6631 94.9766 35.3125C94.9766 35.835 94.8203 36.3037 94.5078 36.7188C94.2002 37.1289 93.8047 37.4072 93.3213 37.5537C93.6094 37.6221 93.9658 37.6562 94.3906 37.6562C94.7031 37.6562 94.9766 37.5488 95.2109 37.334C95.4453 37.1143 95.6577 36.7505 95.8481 36.2427C96.0435 35.73 96.1899 35.0024 96.2876 34.0601C96.3901 33.1177 96.4414 31.9727 96.4414 30.625V24.1797H93.5117V21.8359ZM112.262 21.8359H121.637V24.1797H119.293V33.5693L126.068 21.8359H132.77V24.1797H130.426V37.6562H132.77V40H123.395V37.6562H125.738V28.2666L118.963 40H112.262V37.6562H114.605V24.1797H112.262V21.8359ZM134.381 21.8359H151.373V27.6953H148.736V26.5234C148.736 26.2842 148.714 26.0376 148.67 25.7837C148.631 25.5298 148.568 25.2783 148.48 25.0293C148.397 24.7803 148.275 24.5776 148.114 24.4214C147.953 24.2603 147.77 24.1797 147.564 24.1797H145.221V37.6562H147.564V40H138.189V37.6562H140.533V24.1797H138.189C137.984 24.1797 137.801 24.2603 137.64 24.4214C137.479 24.5776 137.354 24.7803 137.267 25.0293C137.184 25.2783 137.12 25.5298 137.076 25.7837C137.037 26.0376 137.018 26.2842 137.018 26.5234V27.6953H134.381V21.8359ZM152.984 21.8359H160.602C162.374 21.8359 163.763 21.8921 164.769 22.0044C165.78 22.1167 166.566 22.2925 167.127 22.5317C167.694 22.7661 168.214 23.1201 168.688 23.5938C169.112 24.0186 169.432 24.5532 169.647 25.1978C169.867 25.8374 169.977 26.5234 169.977 27.2559C169.977 27.9785 169.732 28.6938 169.244 29.4019C168.756 30.1099 168.082 30.7397 167.223 31.2915C168.224 31.6138 168.98 32.0776 169.493 32.6831C170.011 33.2837 170.27 34.0625 170.27 35.0195C170.27 36.6553 169.723 37.9077 168.629 38.7769C168.39 38.9673 168.148 39.1284 167.904 39.2603C167.66 39.3921 167.362 39.5044 167.01 39.5972C166.659 39.6899 166.31 39.7632 165.963 39.8169C165.616 39.8657 165.15 39.9048 164.564 39.9341C163.978 39.9634 163.402 39.9829 162.835 39.9927C162.274 39.9976 161.529 40 160.602 40H152.984V37.6562H155.328V24.1797H152.984V21.8359ZM160.016 24.1797V30.625H161.188C163.531 30.625 164.703 29.5508 164.703 27.4023C164.703 26.9385 164.679 26.5454 164.63 26.2231C164.581 25.896 164.493 25.5957 164.366 25.3223C164.244 25.0488 164.073 24.834 163.854 24.6777C163.634 24.5166 163.353 24.3945 163.011 24.3115C162.669 24.2236 162.257 24.1797 161.773 24.1797H160.016ZM160.016 32.9688V37.6562H161.773C162.95 37.6562 163.78 37.4829 164.264 37.1362C164.752 36.7896 164.996 36.1816 164.996 35.3125C164.996 34.7168 164.874 34.2529 164.63 33.9209C164.391 33.584 164 33.3423 163.458 33.1958C162.916 33.0444 162.159 32.9688 161.188 32.9688H160.016ZM178.312 21.8213C179.107 21.6357 179.942 21.543 180.816 21.543C181.69 21.543 182.523 21.6357 183.314 21.8213C184.11 22.002 184.828 22.2559 185.467 22.583C186.112 22.9102 186.705 23.3008 187.247 23.7549C187.789 24.209 188.258 24.7119 188.653 25.2637C189.049 25.8105 189.383 26.394 189.657 27.0142C189.935 27.6294 190.143 28.2666 190.279 28.9258C190.416 29.5801 190.484 30.2441 190.484 30.918C190.484 31.5918 190.416 32.2583 190.279 32.9175C190.143 33.5718 189.935 34.209 189.657 34.8291C189.383 35.4443 189.049 36.0278 188.653 36.5796C188.258 37.1265 187.789 37.627 187.247 38.0811C186.705 38.5352 186.112 38.9258 185.467 39.2529C184.828 39.5801 184.11 39.834 183.314 40.0146C182.523 40.2002 181.69 40.293 180.816 40.293C179.942 40.293 179.107 40.2002 178.312 40.0146C177.521 39.834 176.803 39.5801 176.158 39.2529C175.519 38.9258 174.928 38.5352 174.386 38.0811C173.844 37.627 173.375 37.1265 172.979 36.5796C172.584 36.0278 172.247 35.4443 171.969 34.8291C171.695 34.209 171.49 33.5718 171.354 32.9175C171.217 32.2583 171.148 31.5918 171.148 30.918C171.148 30.2441 171.217 29.5801 171.354 28.9258C171.49 28.2666 171.695 27.6294 171.969 27.0142C172.247 26.394 172.584 25.8105 172.979 25.2637C173.375 24.7119 173.844 24.209 174.386 23.7549C174.928 23.3008 175.519 22.9102 176.158 22.583C176.803 22.2559 177.521 22.002 178.312 21.8213ZM182.428 24.2529C181.944 24.0088 181.407 23.8867 180.816 23.8867C180.226 23.8867 179.686 24.0088 179.198 24.2529C178.714 24.4922 178.302 24.8242 177.96 25.249C177.623 25.6738 177.337 26.1841 177.103 26.7798C176.869 27.3706 176.695 28.0127 176.583 28.7061C176.476 29.3994 176.422 30.1367 176.422 30.918C176.422 31.8945 176.515 32.8052 176.7 33.6499C176.891 34.4897 177.164 35.2319 177.521 35.8765C177.877 36.521 178.336 37.0288 178.897 37.3999C179.464 37.7661 180.104 37.9492 180.816 37.9492C181.529 37.9492 182.167 37.7661 182.728 37.3999C183.294 37.0288 183.756 36.521 184.112 35.8765C184.469 35.2319 184.74 34.4897 184.925 33.6499C185.116 32.8052 185.211 31.8945 185.211 30.918C185.211 30.1367 185.155 29.3994 185.042 28.7061C184.935 28.0127 184.764 27.3706 184.53 26.7798C184.295 26.1841 184.007 25.6738 183.666 25.249C183.329 24.8242 182.916 24.4922 182.428 24.2529ZM200.738 21.543C203.302 21.543 205.353 22.2266 206.891 23.5938C207.521 24.1504 207.97 24.7119 208.238 25.2783C208.512 25.8398 208.648 26.5479 208.648 27.4023C208.648 28.0518 208.419 28.606 207.96 29.0649C207.506 29.519 206.954 29.7461 206.305 29.7461C205.655 29.7461 205.101 29.519 204.642 29.0649C204.188 28.606 203.961 28.0518 203.961 27.4023C203.961 27.0703 204.027 26.7578 204.159 26.4648C204.291 26.167 204.474 25.9082 204.708 25.6885C204.356 25.0342 203.88 24.5703 203.28 24.2969C202.684 24.0234 201.935 23.8867 201.031 23.8867C200.44 23.8867 199.891 24.0063 199.383 24.2456C198.88 24.4849 198.443 24.8193 198.072 25.249C197.706 25.6787 197.391 26.1865 197.127 26.7725C196.864 27.3584 196.666 28.0029 196.534 28.7061C196.407 29.4043 196.344 30.1416 196.344 30.918C196.344 31.6846 196.422 32.4219 196.578 33.1299C196.734 33.8379 196.961 34.4824 197.259 35.0635C197.557 35.6445 197.906 36.1523 198.307 36.5869C198.707 37.0166 199.166 37.3511 199.684 37.5903C200.206 37.8296 200.753 37.9492 201.324 37.9492C202.154 37.9492 202.926 37.7271 203.639 37.2827C204.356 36.8384 204.95 36.2158 205.418 35.415C205.892 34.6094 206.188 33.6963 206.305 32.6758L208.648 33.2617C208.531 33.833 208.395 34.3652 208.238 34.8584C208.082 35.3467 207.887 35.835 207.652 36.3232C207.418 36.8066 207.152 37.2437 206.854 37.6343C206.556 38.0249 206.205 38.3887 205.799 38.7256C205.394 39.0625 204.947 39.3457 204.459 39.5752C203.971 39.7998 203.412 39.9756 202.782 40.1025C202.152 40.2295 201.471 40.293 200.738 40.293C199.864 40.293 199.029 40.2002 198.233 40.0146C197.442 39.834 196.725 39.5801 196.08 39.2529C195.44 38.9258 194.85 38.5352 194.308 38.0811C193.766 37.627 193.297 37.1265 192.901 36.5796C192.506 36.0278 192.169 35.4443 191.891 34.8291C191.617 34.209 191.412 33.5718 191.275 32.9175C191.139 32.2583 191.07 31.5918 191.07 30.918C191.07 30.2441 191.139 29.5801 191.275 28.9258C191.412 28.2666 191.617 27.6294 191.891 27.0142C192.169 26.394 192.506 25.8105 192.901 25.2637C193.297 24.7119 193.766 24.209 194.308 23.7549C194.85 23.3008 195.44 22.9102 196.08 22.583C196.725 22.2559 197.442 22.002 198.233 21.8213C199.029 21.6357 199.864 21.543 200.738 21.543ZM213.629 21.8359H230.621V24.1797H228.277V37.6562H230.621V40H221.246V37.6562H223.59V24.1797H219.488V30.625C219.488 31.8213 219.454 32.876 219.386 33.7891C219.317 34.6973 219.203 35.52 219.042 36.2573C218.885 36.9897 218.68 37.605 218.426 38.103C218.177 38.5962 217.865 39.0112 217.489 39.3481C217.118 39.6802 216.688 39.9194 216.2 40.0659C215.711 40.2173 215.147 40.293 214.508 40.293C214.073 40.293 213.648 40.2466 213.233 40.1538C212.818 40.061 212.42 39.9146 212.04 39.7144C211.664 39.5093 211.332 39.2603 211.043 38.9673C210.76 38.6743 210.533 38.3154 210.362 37.8906C210.196 37.4658 210.113 36.9971 210.113 36.4844C210.113 35.3613 210.384 34.48 210.926 33.8403C211.141 33.5718 211.407 33.3594 211.725 33.2031C212.047 33.0469 212.389 32.9688 212.75 32.9688C213.399 32.9688 213.951 33.1982 214.405 33.6572C214.864 34.1113 215.094 34.6631 215.094 35.3125C215.094 35.835 214.938 36.3037 214.625 36.7188C214.317 37.1289 213.922 37.4072 213.438 37.5537C213.727 37.6221 214.083 37.6562 214.508 37.6562C214.82 37.6562 215.094 37.5488 215.328 37.334C215.562 37.1143 215.775 36.7505 215.965 36.2427C216.161 35.73 216.307 35.0024 216.405 34.0601C216.507 33.1177 216.559 31.9727 216.559 30.625V24.1797H213.629V21.8359ZM238.956 21.8213C239.752 21.6357 240.587 21.543 241.461 21.543C242.335 21.543 243.167 21.6357 243.958 21.8213C244.754 22.002 245.472 22.2559 246.112 22.583C246.756 22.9102 247.35 23.3008 247.892 23.7549C248.434 24.209 248.902 24.7119 249.298 25.2637C249.693 25.8105 250.028 26.394 250.301 27.0142C250.58 27.6294 250.787 28.2666 250.924 28.9258C251.061 29.5801 251.129 30.2441 251.129 30.918C251.129 31.5918 251.061 32.2583 250.924 32.9175C250.787 33.5718 250.58 34.209 250.301 34.8291C250.028 35.4443 249.693 36.0278 249.298 36.5796C248.902 37.1265 248.434 37.627 247.892 38.0811C247.35 38.5352 246.756 38.9258 246.112 39.2529C245.472 39.5801 244.754 39.834 243.958 40.0146C243.167 40.2002 242.335 40.293 241.461 40.293C240.587 40.293 239.752 40.2002 238.956 40.0146C238.165 39.834 237.447 39.5801 236.803 39.2529C236.163 38.9258 235.572 38.5352 235.03 38.0811C234.488 37.627 234.02 37.1265 233.624 36.5796C233.229 36.0278 232.892 35.4443 232.613 34.8291C232.34 34.209 232.135 33.5718 231.998 32.9175C231.861 32.2583 231.793 31.5918 231.793 30.918C231.793 30.2441 231.861 29.5801 231.998 28.9258C232.135 28.2666 232.34 27.6294 232.613 27.0142C232.892 26.394 233.229 25.8105 233.624 25.2637C234.02 24.7119 234.488 24.209 235.03 23.7549C235.572 23.3008 236.163 22.9102 236.803 22.583C237.447 22.2559 238.165 22.002 238.956 21.8213ZM243.072 24.2529C242.589 24.0088 242.052 23.8867 241.461 23.8867C240.87 23.8867 240.331 24.0088 239.842 24.2529C239.359 24.4922 238.946 24.8242 238.604 25.249C238.268 25.6738 237.982 26.1841 237.748 26.7798C237.513 27.3706 237.34 28.0127 237.228 28.7061C237.12 29.3994 237.066 30.1367 237.066 30.918C237.066 31.8945 237.159 32.8052 237.345 33.6499C237.535 34.4897 237.809 35.2319 238.165 35.8765C238.521 36.521 238.98 37.0288 239.542 37.3999C240.108 37.7661 240.748 37.9492 241.461 37.9492C242.174 37.9492 242.811 37.7661 243.373 37.3999C243.939 37.0288 244.4 36.521 244.757 35.8765C245.113 35.2319 245.384 34.4897 245.57 33.6499C245.76 32.8052 245.855 31.8945 245.855 30.918C245.855 30.1367 245.799 29.3994 245.687 28.7061C245.58 28.0127 245.409 27.3706 245.174 26.7798C244.94 26.1841 244.652 25.6738 244.31 25.249C243.973 24.8242 243.561 24.4922 243.072 24.2529ZM252.301 21.8359H259.918C261.69 21.8359 263.08 21.8921 264.085 22.0044C265.096 22.1167 265.882 22.2925 266.444 22.5317C267.01 22.7661 267.53 23.1201 268.004 23.5938C268.429 24.0186 268.749 24.5532 268.963 25.1978C269.183 25.8374 269.293 26.5234 269.293 27.2559C269.293 27.9785 269.049 28.6938 268.561 29.4019C268.072 30.1099 267.398 30.7397 266.539 31.2915C267.54 31.6138 268.297 32.0776 268.81 32.6831C269.327 33.2837 269.586 34.0625 269.586 35.0195C269.586 36.6553 269.039 37.9077 267.945 38.7769C267.706 38.9673 267.464 39.1284 267.22 39.2603C266.976 39.3921 266.678 39.5044 266.327 39.5972C265.975 39.6899 265.626 39.7632 265.279 39.8169C264.933 39.8657 264.466 39.9048 263.88 39.9341C263.294 39.9634 262.718 39.9829 262.152 39.9927C261.59 39.9976 260.846 40 259.918 40H252.301V37.6562H254.645V24.1797H252.301V21.8359ZM259.332 24.1797V30.625H260.504C262.848 30.625 264.02 29.5508 264.02 27.4023C264.02 26.9385 263.995 26.5454 263.946 26.2231C263.897 25.896 263.81 25.5957 263.683 25.3223C263.561 25.0488 263.39 24.834 263.17 24.6777C262.95 24.5166 262.669 24.3945 262.328 24.3115C261.986 24.2236 261.573 24.1797 261.09 24.1797H259.332ZM259.332 32.9688V37.6562H261.09C262.267 37.6562 263.097 37.4829 263.58 37.1362C264.068 36.7896 264.312 36.1816 264.312 35.3125C264.312 34.7168 264.19 34.2529 263.946 33.9209C263.707 33.584 263.316 33.3423 262.774 33.1958C262.232 33.0444 261.476 32.9688 260.504 32.9688H259.332Z" fill="#9B2828"/>
</svg>
