<svg width="18" height="19" viewBox="0 0 18 19" fill="none" xmlns="http://www.w3.org/2000/svg">
<path fill-rule="evenodd" clip-rule="evenodd" d="M0 3C0 1.34277 1.34277 0 3 0H15C16.6572 0 18 1.34277 18 3V15C18 16.6572 16.6572 18 15 18H4.13281V7.40332C4.13281 7.0332 4.43262 6.7334 4.80273 6.7334H4.93848C6.64746 6.7334 8.0332 8.11914 8.0332 9.82812V9.86816V9.96387V10.8574C8.0332 11.3359 8.4209 11.7236 8.89941 11.7236C9.37793 11.7236 9.76562 11.3359 9.76562 10.8574V9.96387C9.76562 8.91895 10.2617 7.99023 11.0303 7.40039C11.5752 6.98242 12.2568 6.7334 12.9961 6.7334C13.3662 6.7334 13.666 7.0332 13.666 7.40332V14.0996C13.666 14.5791 14.0537 14.9668 14.5332 14.9668C15.0117 14.9668 15.3994 14.5791 15.3994 14.0996V7.40332C15.3994 6.07617 14.3232 5 12.9961 5C11.3154 5 9.83008 5.83594 8.93164 7.11426C8.0625 5.83789 6.59863 5 4.93848 5H4.80273C3.47559 5 2.39941 6.07617 2.39941 7.40332V17.9395C1.03027 17.6611 0 16.4512 0 15V3Z" fill="#9B2828"/>
</svg>
