<svg width="18" height="18" viewBox="0 0 18 18" fill="none" xmlns="http://www.w3.org/2000/svg">
<path d="M13.5 11.25H11.25V13.5H13.5V11.25ZM10.125 11.25H7.875V13.5H10.125V11.25ZM6.75 7.875H4.5V10.125H6.75V7.875ZM6.75 11.25H4.5V13.5H6.75V11.25ZM13.5 7.875H11.25V10.125H13.5V7.875ZM10.125 7.875H7.875V10.125H10.125V7.875ZM6.13929 0.514286H3.375V2.25H6.13929V0.514286ZM15.75 15.75H2.25V5.625H15.75V15.75ZM16.875 0H15.75V3.375H11.25L9.77143 3.34286H8.22857L6.75 3.375H2.25V0H1.125C0.503156 0 0 0.503719 0 1.125V16.875C0 17.4968 0.503156 18 1.125 18H16.875C17.4968 18 18 17.4968 18 16.875V1.125C18 0.503719 17.4968 0 16.875 0ZM14.625 0.514286H11.8607V2.25H14.625V0.514286Z" fill="#9B2828"/>
</svg>
