<svg width="17" height="18" viewBox="0 0 17 18" fill="none" xmlns="http://www.w3.org/2000/svg">
<path d="M8.25 2.1375C9.555 2.1375 10.6125 3.195 10.6125 4.5C10.6125 5.805 9.555 6.8625 8.25 6.8625C6.945 6.8625 5.8875 5.805 5.8875 4.5C5.8875 3.195 6.945 2.1375 8.25 2.1375ZM8.25 0C5.76375 0 3.75 2.01375 3.75 4.5C3.75 6.98625 5.76375 9 8.25 9C10.7362 9 12.75 6.98625 12.75 4.5C12.75 2.01375 10.7362 0 8.25 0Z" fill="#9B2828"/>
<path d="M8.25 12.2625C11.5913 12.2625 14.3625 13.905 14.3625 14.625V17C14.3625 17.5523 14.8102 18 15.3625 18H15.5C16.0523 18 16.5 17.5523 16.5 17V14.625C16.5 11.6325 11.2537 10.125 8.25 10.125C5.24625 10.125 0 11.6325 0 14.625V17C0 17.5523 0.447715 18 1 18H1.1375C1.68979 18 2.1375 17.5523 2.1375 17V14.625C2.1375 13.905 4.90875 12.2625 8.25 12.2625Z" fill="#9B2828"/>
</svg>
