<svg width="19" height="19" viewBox="0 0 19 19" fill="none" xmlns="http://www.w3.org/2000/svg">
<rect x="0.600586" width="18" height="18" rx="3" fill="#9B2828"/>
<path d="M5.40303 6.73333C5.03317 6.73333 4.73333 7.03317 4.73333 7.40303V18.4333H3V7.40303C3 6.07587 4.07587 5 5.40303 5H5.53894C7.19908 5 8.6635 5.83796 9.53232 7.11399C10.4303 5.83555 11.916 5 13.597 5C14.9241 5 16 6.07587 16 7.40303V14.1C16 14.5786 15.612 14.9667 15.1333 14.9667C14.6547 14.9667 14.2667 14.5786 14.2667 14.1V7.40303C14.2667 7.03317 13.9668 6.73333 13.597 6.73333C11.8129 6.73333 10.3667 8.17959 10.3667 9.96364V10.8572C10.3667 11.3358 9.97865 11.7238 9.5 11.7238C9.02135 11.7238 8.63333 11.3358 8.63333 10.8572V9.96364C8.63333 9.9316 8.63364 9.89964 8.63424 9.86775C8.63364 9.85448 8.63333 9.84114 8.63333 9.82773C8.63333 8.11874 7.24793 6.73333 5.53894 6.73333H5.40303Z" fill="white"/>
</svg>
