<svg width="120" height="41" viewBox="0 0 120 41" fill="none" xmlns="http://www.w3.org/2000/svg">
<path d="M58.4897 0.163851C56.5012 0.820406 55.3382 2.88387 55.1787 6.03533C55.1318 6.93575 55.16 7.19838 55.3663 8.0519C55.6477 9.19618 56.1354 10.5937 57.2422 13.3981C58.2552 15.9775 58.4334 16.5496 58.8461 18.6037C59.2869 20.8078 59.8403 23.9218 59.8403 24.1657C59.8403 24.2782 59.8778 24.3814 59.9153 24.4095C59.9622 24.4377 60.1498 23.5372 60.3468 22.4211C61.2284 17.3469 61.4348 16.5308 62.776 12.9292C63.4982 10.9595 64.0798 9.19618 64.3142 8.23948C64.5581 7.23589 64.53 5.23809 64.2673 3.97187C63.8734 2.11476 62.9167 0.754751 61.6505 0.257645C60.872 -0.0424957 59.2681 -0.0893917 58.4897 0.163851Z" fill="#D8DCBF"/>
<path d="M43.8297 8.88636C41.7381 9.60857 41.044 11.8784 42.3947 13.5854C43.0512 14.4108 44.4206 15.1143 47.3188 16.1179C49.2322 16.7744 50.3015 17.2809 51.4551 18.05C52.3649 18.6503 53.7062 19.8884 54.419 20.7888L54.9068 21.3984L55.0381 21.0795C55.4883 19.9915 54.5316 17.1308 52.8621 14.5703C51.7271 12.8351 50.2358 11.1655 48.9133 10.162C48.2568 9.66485 46.8593 8.9614 46.2215 8.81133C45.5555 8.65188 44.3925 8.68939 43.8297 8.88636Z" fill="#D8DCBF"/>
<path d="M72.8121 8.93285C71.4708 9.37368 70.1765 10.2741 68.779 11.7373C66.6405 13.9696 64.7552 17.318 64.3332 19.616C64.23 20.2069 64.2769 21.0229 64.4363 21.2761C64.5114 21.398 64.5489 21.3793 64.6896 21.1823C65.0741 20.6289 65.9839 19.6535 66.5467 19.1751C67.8973 18.0308 68.8071 17.5431 71.5646 16.4551C75.0819 15.0763 75.8229 14.7105 76.7045 13.9133C77.3986 13.2849 77.7081 12.6096 77.7081 11.7091C77.7081 11.1651 77.6612 10.9025 77.4924 10.5742C77.1547 9.88017 76.6764 9.40182 75.9917 9.06416C75.4289 8.78278 75.2789 8.75464 74.4254 8.73588C73.6469 8.70774 73.3749 8.74526 72.8121 8.93285Z" fill="#D8DCBF"/>
<path d="M24.105 10.9593C21.8727 11.25 19.9124 12.1786 18.7212 13.5198C17.38 15.0111 16.7328 17.2622 16.9767 19.5226C17.3237 22.6928 19.1151 24.8501 22.1822 25.8068C23.3546 26.1726 24.2269 26.2758 25.6244 26.2195C26.9563 26.1632 27.6504 26.0225 29.5731 25.4316C30.3235 25.1971 30.708 25.1221 30.7737 25.1878C30.9144 25.3285 24.0487 31.425 21.0942 33.7699C16.5546 37.3809 13.8627 38.694 10.3736 39.0036C7.60667 39.2568 5.32748 38.6003 3.83616 37.1277C2.69188 36.0022 2.29794 35.0361 2.29794 33.3759C2.29794 32.1379 2.44801 31.5563 2.97326 30.7779C3.32967 30.2526 3.66733 29.9525 4.28637 29.6336C5.18679 29.1834 6.87508 29.0052 7.57853 29.3053C7.9537 29.4554 8.44143 29.8774 8.44143 30.0369C8.44143 30.0932 8.2257 30.2526 7.97246 30.3933C7.35342 30.7403 7.10018 31.2281 7.0908 32.0628C7.08142 33.0664 7.50349 33.6573 8.5915 34.1451C9.21054 34.4264 10.4299 34.4452 11.1145 34.1826C12.1932 33.7699 12.8216 33.1039 13.1499 32.0253C13.7033 30.2057 12.7184 28.3486 10.6737 27.3732C9.68889 26.8948 8.84474 26.7166 7.58791 26.7166C3.87368 26.7166 1.16304 28.3298 0.243864 31.0968C0.0187587 31.7627 0 31.9597 0 33.3384C0 34.6703 0.0281381 34.9142 0.225105 35.4957C1.16304 38.272 3.26402 40.0072 6.47176 40.645C7.51287 40.8513 9.62323 40.9263 10.7863 40.795C14.2285 40.4011 17.3893 38.9848 21.1505 36.1429C22.8481 34.8579 23.5516 34.2576 27.0595 31.078C28.5602 29.718 30.0234 28.4049 30.3235 28.161C31.0645 27.5514 31.1489 27.6639 30.7737 28.7707C30.1453 30.6372 29.9765 33.0946 30.3704 34.5953C30.9519 36.7807 32.3401 38.6378 34.1503 39.6507C35.7354 40.5324 38.0146 40.8794 40.1437 40.5512C41.2692 40.3823 41.8883 40.1947 42.7512 39.7727C44.2143 39.0505 45.3023 37.9812 45.9683 36.6118C46.5498 35.4113 46.6248 34.6422 46.2684 33.3853C45.9964 32.3911 45.5087 31.5939 44.7021 30.7966C43.5296 29.6242 42.3666 29.1552 40.6596 29.1552C38.7837 29.1552 37.3955 29.8212 36.7202 31.0405C36.467 31.5001 36.4388 31.6314 36.4388 32.3911C36.4388 33.1321 36.4764 33.3009 36.7015 33.7793C37.1329 34.6515 37.7144 34.9704 38.8775 34.9704C39.7873 34.9704 40.4438 34.6515 40.8378 34.0044C41.0722 33.6198 41.1191 33.4322 41.1567 32.7663C41.1848 32.3161 41.1567 31.8565 41.091 31.6783L40.9878 31.3781L41.4568 31.425C42.1134 31.4907 43.0607 31.9784 43.5109 32.4943C44.5614 33.6948 44.5801 35.6551 43.539 36.9589C42.8449 37.8405 41.6444 38.5627 40.35 38.8816C39.4496 39.1067 37.6957 39.0786 36.7202 38.8254C34.019 38.1313 32.5839 36.2929 32.3213 33.1884C32.2556 32.4286 32.3963 30.881 32.6027 30.0275C33.4093 26.8198 35.6979 24.7 39.4309 23.7152C41.2129 23.2462 42.3947 23.1055 44.6927 23.1149C46.5686 23.1149 46.8593 23.1337 47.9286 23.3682C53.9689 24.6531 57.4768 27.9922 57.9739 32.9164C58.2083 35.3081 57.6081 37.4278 56.4075 38.422C54.9912 39.6038 52.3931 39.8102 51.1363 38.8441C50.4235 38.3001 50.1515 37.0058 50.5829 36.2367C50.808 35.8427 51.5771 35.2518 51.8773 35.2518C52.0086 35.2518 52.0555 35.3175 52.0555 35.5051C52.0555 35.9553 52.4776 36.5274 52.9465 36.7056C53.725 37.0058 54.4941 36.6493 54.9162 35.7677C55.1319 35.3362 55.1694 35.1674 55.1132 34.811C55.0006 33.9575 54.3347 33.2071 53.4249 32.907C53.1998 32.8319 52.7683 32.8038 52.29 32.8319C50.3672 32.9351 48.6133 34.4827 48.435 36.246C48.2006 38.4783 49.57 40.2604 51.8867 40.7481C52.7027 40.9263 54.3909 40.8701 55.3383 40.645C57.3454 40.1572 58.9306 38.7597 59.6153 36.8745C59.7559 36.4899 59.9154 36.1991 59.9623 36.2179C60.0186 36.2367 60.1311 36.4618 60.2249 36.7338C60.7314 38.2251 61.7913 39.4632 63.1325 40.1197C64.3331 40.7012 64.924 40.8325 66.4528 40.8325C67.447 40.8325 67.8972 40.7856 68.3193 40.6543C70.5235 39.9884 71.5833 38.5534 71.452 36.4149C71.3957 35.4957 71.1331 34.9048 70.4859 34.2576C69.4542 33.2259 67.6815 32.7475 66.3403 33.1415C66.0683 33.2259 65.6931 33.4416 65.4398 33.6667C64.6051 34.3889 64.5488 35.3831 65.2898 36.2273C65.9463 36.9682 66.6967 37.0245 67.3438 36.3773C67.5596 36.1616 67.7472 35.8521 67.8128 35.6364C67.9254 35.1955 67.9723 35.1862 68.4506 35.43C69.1353 35.7864 69.5386 36.4336 69.5386 37.2215C69.548 38.2438 68.7883 39.0411 67.5314 39.3225C65.3742 39.8196 63.3764 38.9379 62.5041 37.0996C62.0726 36.1804 61.9038 35.3362 61.9038 33.9762C61.9038 31.1249 62.8042 28.827 64.6801 26.9605C66.3965 25.244 69.0603 23.9215 72.0523 23.3213C72.9715 23.1337 73.3842 23.1055 75.1287 23.1149C79.8278 23.1243 83.1668 24.2123 85.2772 26.4165C86.9186 28.1423 87.7346 30.5434 87.5658 33.2353C87.4626 35.0455 87.0311 36.171 86.0463 37.2215C85.0427 38.2814 83.7859 38.8254 81.9006 39.0129C79.3213 39.2756 76.7795 38.0938 75.8978 36.2085C75.6727 35.7302 75.6446 35.5613 75.6446 34.6891C75.6446 33.8262 75.6727 33.6386 75.8978 33.179C76.348 32.2129 77.2672 31.5282 78.2614 31.425L78.7116 31.3781L78.646 31.7721C78.571 32.2504 78.7492 33.4041 78.9836 33.8543C79.2087 34.3045 79.734 34.7453 80.1654 34.8673C80.6626 35.008 81.6474 34.9986 82.0038 34.8485C82.8855 34.4733 83.3919 33.6479 83.4576 32.4661C83.4951 31.7721 83.4764 31.6408 83.2513 31.1812C82.6228 29.8962 81.1409 29.1552 79.2087 29.1552C78.2052 29.1552 77.4829 29.3241 76.5825 29.7555C74.2846 30.881 72.9152 33.7793 73.628 36.0115C74.3315 38.1969 76.4231 39.8852 79.1618 40.4761C80.3343 40.7294 82.5759 40.7012 83.6921 40.4292C86.5997 39.707 88.6444 37.6998 89.4885 34.736C89.995 32.9539 89.7605 30.459 88.8976 28.5643C88.3161 27.2981 88.7007 27.5232 91.5426 30.0932C95.8571 33.995 97.4798 35.3644 99.4213 36.7525C102.301 38.8066 105.152 40.1197 107.91 40.6637C109.091 40.8982 111.999 40.8982 113.115 40.6637C116.22 40.0165 118.208 38.5815 119.343 36.1804C119.85 35.1205 120.009 34.4171 120 33.2822C119.99 30.4214 118.405 28.2173 115.676 27.27C114.203 26.7635 111.765 26.5571 110.536 26.8479C108.022 27.4388 106.315 29.4835 106.634 31.5001C106.831 32.71 107.497 33.6011 108.594 34.1075C109.045 34.3139 109.26 34.3608 109.973 34.3608C111.042 34.3608 111.671 34.1544 112.224 33.6198C113.218 32.6631 112.993 30.9842 111.783 30.3652C111.586 30.262 111.427 30.1494 111.427 30.1025C111.427 29.9243 111.83 29.5304 112.205 29.3522C112.993 28.9676 114.663 29.1459 115.76 29.7368C117.008 30.4027 117.617 31.5939 117.617 33.3759C117.617 34.886 117.158 36.0772 116.182 37.0527C114.822 38.4127 113.087 39.0223 110.583 39.0223C105.893 39.0223 102.488 37.1558 94.2157 30.0088C90.1545 26.5103 88.8132 25.2816 88.907 25.1878C88.9727 25.1221 89.4323 25.2159 90.389 25.4785C93.3435 26.3133 94.6566 26.4352 96.5418 26.0507C98.4364 25.6661 99.712 25.0189 100.922 23.809C101.841 22.8992 102.385 21.9613 102.723 20.7419C102.995 19.7477 103.014 17.5154 102.76 16.54C102.357 14.9549 101.372 13.4823 100.134 12.61C97.7142 10.8936 94.0375 10.3965 91.355 11.4376C88.8883 12.3849 87.1343 14.6829 87.3782 16.6244C87.6033 18.4065 88.7663 19.457 90.6047 19.5695C91.7302 19.6352 92.3774 19.4382 92.9589 18.8567C93.4654 18.3408 93.653 17.825 93.5779 17.0934C93.456 15.874 92.6588 15.1987 91.3175 15.1518C90.9986 15.1425 90.7923 15.0862 90.7923 15.0299C90.7923 14.8705 91.4301 14.0451 91.7959 13.7356C93.0996 12.6288 95.9884 12.6944 98.0894 13.8762C98.8773 14.3171 99.8996 15.3957 100.256 16.1554C101.335 18.3971 100.781 21.361 99.018 22.918C98.4552 23.4151 97.2734 24.0247 96.4668 24.2311C94.7504 24.6813 92.5181 24.4187 89.1978 23.3869C86.5622 22.5615 82.0788 21.6893 78.4115 21.2672C76.1136 21.0139 73.6468 20.9858 72.2024 21.2203C67.7472 21.9237 63.7047 24.1748 61.6224 27.1012C61.1722 27.7483 60.4313 29.1365 60.1405 29.9056L60.0092 30.2339L59.9154 29.9994C59.0994 28.0954 58.0583 26.5103 56.8765 25.4035C53.4999 22.252 48.3975 20.5262 43.539 20.8826C39.8811 21.164 34.3472 22.2426 30.5767 23.4244C28.1944 24.1654 26.1684 24.5218 24.8084 24.4374C23.0826 24.3249 21.8352 23.7902 20.719 22.6835C19.5747 21.5486 19.1245 20.4043 19.1245 18.6503C19.1151 16.9714 19.556 15.8834 20.6815 14.7579C21.7789 13.6511 23.2046 13.0509 24.9116 12.9571C26.7218 12.8539 28.0255 13.3791 28.8134 14.5234C29.001 14.8048 29.1698 15.058 29.1698 15.0862C29.1698 15.1143 28.8884 15.1518 28.5414 15.1612C27.3502 15.1894 26.5905 15.7709 26.356 16.8214C26.009 18.3971 27.1345 19.5883 28.9822 19.5883C30.6143 19.5883 31.7961 18.8754 32.2838 17.5905C33.2686 15.0018 31.1395 12.0848 27.6129 11.1844C26.6093 10.9311 25.071 10.8279 24.105 10.9593Z" fill="#D8DCBF"/>
</svg>
